<?xml version="1.0" encoding="utf-8"?>
<svg width="64" height="896" viewBox="0 0 64 896" fill="#fff" xmlns="http://www.w3.org/2000/svg"><path d="M60.6667 2H3.33333C2.59695 2 2 2.59695 2 3.33333V60.6667C2 61.403 2.59695 62 3.33333 62H60.6667C61.403 62 62 61.403 62 60.6667V3.33333C62 2.59695 61.403 2 60.6667 2Z" fill="#5865F2"/><path d="M45.8617 19.5274C43.3122 18.3576 40.5783 17.4957 37.7198 17.0021C37.6678 16.9925 37.6158 17.0164 37.589 17.064C37.2374 17.6893 36.8479 18.5052 36.5752 19.1464C33.5007 18.6861 30.442 18.6861 27.4305 19.1464C27.1577 18.4909 26.7541 17.6893 26.401 17.064C26.3741 17.0179 26.3221 16.9941 26.2701 17.0021C23.4132 17.4941 20.6793 18.356 18.1282 19.5274C18.1061 19.5369 18.0872 19.5528 18.0746 19.5734C12.889 27.3207 11.4684 34.8775 12.1653 42.3406C12.1685 42.3772 12.1889 42.4121 12.2173 42.4343C15.6387 44.9468 18.9528 46.4722 22.2055 47.4832C22.2575 47.4991 22.3127 47.4801 22.3458 47.4372C23.1152 46.3865 23.8011 45.2786 24.3891 44.1136C24.4238 44.0453 24.3907 43.9644 24.3198 43.9374C23.2319 43.5247 22.196 43.0216 21.1995 42.4502C21.1207 42.4041 21.1144 42.2914 21.1869 42.2374C21.3966 42.0803 21.6064 41.9168 21.8066 41.7517C21.8428 41.7216 21.8933 41.7152 21.9359 41.7343C28.4821 44.7231 35.5692 44.7231 42.0383 41.7343C42.0808 41.7137 42.1313 41.72 42.1691 41.7502C42.3694 41.9152 42.5791 42.0803 42.7904 42.2374C42.8629 42.2914 42.8581 42.4041 42.7793 42.4502C41.7829 43.0326 40.747 43.5247 39.6575 43.9358C39.5866 43.9628 39.555 44.0453 39.5897 44.1136C40.1904 45.277 40.8763 46.3849 41.6315 47.4356C41.663 47.4801 41.7198 47.4991 41.7718 47.4832C45.0402 46.4722 48.3544 44.9468 51.7757 42.4343C51.8057 42.4121 51.8246 42.3787 51.8278 42.3422C52.6618 33.714 50.4308 26.2191 45.9137 19.575C45.9026 19.5528 45.8838 19.5369 45.8617 19.5274ZM25.3667 37.7964C23.3958 37.7964 21.7719 35.987 21.7719 33.7648C21.7719 31.5427 23.3643 29.7333 25.3667 29.7333C27.3848 29.7333 28.993 31.5586 28.9615 33.7648C28.9615 35.987 27.369 37.7964 25.3667 37.7964ZM38.6579 37.7964C36.6871 37.7964 35.0632 35.987 35.0632 33.7648C35.0632 31.5427 36.6556 29.7333 38.6579 29.7333C40.6761 29.7333 42.2842 31.5586 42.2527 33.7648C42.2527 35.987 40.6761 37.7964 38.6579 37.7964Z" fill="white"/><path d="M60.6667 66H3.33333C2.59695 66 2 66.597 2 67.3333V124.667C2 125.403 2.59695 126 3.33333 126H60.6667C61.403 126 62 125.403 62 124.667V67.3333C62 66.597 61.403 66 60.6667 66Z" fill="white"/><path fill-rule="evenodd" clip-rule="evenodd" d="M51.164 86.4006C50.704 84.6683 49.3489 83.3043 47.6274 82.8412C44.5083 82 32 82 32 82C32 82 19.4916 82 16.3723 82.8412C14.6511 83.3043 13.2957 84.6683 12.8357 86.4006C12 89.5403 12 96.0908 12 96.0908C12 96.0908 12 102.641 12.8357 105.781C13.2957 107.514 14.6511 108.878 16.3723 109.341C19.4916 110.182 32 110.182 32 110.182C32 110.182 44.5083 110.182 47.6274 109.341C49.3489 108.878 50.704 107.514 51.164 105.781C52 102.641 52 96.0908 52 96.0908C52 96.0908 52 89.5403 51.164 86.4006Z" fill="#FF0000"/><path fill-rule="evenodd" clip-rule="evenodd" d="M27.9087 102.039L38.3631 96.0914L27.9087 90.1437V102.039Z" fill="white"/><path d="M60.6667 130H3.33333C2.59695 130 2 130.597 2 131.333V188.667C2 189.403 2.59695 190 3.33333 190H60.6667C61.403 190 62 189.403 62 188.667V131.333C62 130.597 61.403 130 60.6667 130Z" fill="black"/><path d="M43.071 142.332H48.9746L36.077 157.073L51.25 177.132H39.3697L30.0646 164.966L19.4174 177.132H13.5103L27.3055 161.365L12.75 142.332H24.9319L33.3429 153.452L43.071 142.332ZM40.999 173.599H44.2703L23.1544 145.68H19.6441L40.999 173.599Z" fill="white"/><path d="M60.6667 194H3.33333C2.59695 194 2 194.597 2 195.333V252.667C2 253.403 2.59695 254 3.33333 254H60.6667C61.403 254 62 253.403 62 252.667V195.333C62 194.597 61.403 194 60.6667 194Z" fill="#9146FF"/><path d="M43.7496 297.167L45.4331 287.999H35.6341V284.757C35.6341 279.913 37.5349 278.049 42.4536 278.049C43.9812 278.049 45.2111 278.086 45.9191 278.161V269.851C44.5776 269.478 41.298 269.106 39.3973 269.106C29.3727 269.106 24.7516 273.838 24.7516 284.049V287.999H18.5657V297.167H24.7516V317.116C27.0723 317.692 29.4999 317.999 31.9982 317.999C33.2282 317.999 34.4414 317.923 35.6329 317.779V297.167H43.7484H43.7496Z" fill="white"/><path d="M47.7143 224.119L41.524 230.31H35.3333L29.9167 235.726V230.31H22.9524V207.095H47.7143V224.119Z" fill="white"/><path d="M21.4048 204L13.6667 211.738V239.595H22.9524V247.333L30.6906 239.595H36.8811L50.8098 225.667V204H21.4048ZM47.7144 224.119L41.5238 230.31H35.3334L29.9167 235.726V230.31H22.9524V207.095H47.7144V224.119Z" fill="black"/><path d="M43.0713 212.512H39.9763V221.798H43.0713V212.512Z" fill="black"/><path d="M34.5596 212.512H31.4644V221.798H34.5596V212.512Z" fill="black"/><path d="M60.6667 194H3.33333C2.59695 194 2 194.597 2 195.333V252.667C2 253.403 2.59695 254 3.33333 254H60.6667C61.403 254 62 253.403 62 252.667V195.333C62 194.597 61.403 194 60.6667 194Z" fill="#9146FF"/><path d="M46.9999 222.5L41.0001 228.5H34.9999L29.75 233.75V228.5H23V206H46.9999V222.5Z" fill="white"/><path d="M21.5 203L14 210.5V237.5H23V245L30.4999 237.5H36.5L50 224V203H21.5ZM46.9999 222.5L40.9998 228.5H34.9999L29.7499 233.75V228.5H23V206H46.9999V222.5Z" fill="black"/><path d="M42.4998 211.25H39.5V220.25H42.4998V211.25Z" fill="black"/><path d="M34.2495 211.25H31.2495V220.25H34.2495V211.25Z" fill="black"/><path d="M60.6667 258H3.33333C2.59695 258 2 258.597 2 259.333V316.667C2 317.403 2.59695 318 3.33333 318H60.6667C61.403 318 62 317.403 62 316.667V259.333C62 258.597 61.403 258 60.6667 258Z" fill="#1877F2"/><path fill-rule="evenodd" clip-rule="evenodd" d="M26.5086 317.993V294.835H18.6665V285.709H26.4665V279.046C26.4665 271.288 31.1928 267.067 38.1085 267.067C40.4578 267.074 42.8052 267.207 45.1402 267.467V275.561H40.3612C36.6035 275.561 35.8772 277.34 35.8772 279.961V285.751H44.8772L43.7085 294.835H35.8772V317.993H26.5086Z" fill="white"/><path d="M60.6667 322H3.33333C2.59695 322 2 322.597 2 323.333V380.667C2 381.403 2.59695 382 3.33333 382H60.6667C61.403 382 62 381.403 62 380.667V323.333C62 322.597 61.403 322 60.6667 322Z" fill="#24292E"/><path fill-rule="evenodd" clip-rule="evenodd" d="M31.9988 332C20.9552 332 12 340.954 12 352C12 360.837 17.7299 368.332 25.6783 370.978C26.6789 371.16 27.0436 370.541 27.0436 370.012C27.0436 369.538 27.0264 368.28 27.0166 366.612C21.4536 367.818 20.2799 363.929 20.2799 363.929C19.3702 361.618 18.0589 361.006 18.0589 361.006C16.2431 359.763 18.1965 359.788 18.1965 359.788C20.2038 359.932 21.2597 361.849 21.2597 361.849C23.0436 364.905 25.9398 364.025 27.0804 363.514C27.2621 362.218 27.7778 361.338 28.3499 360.84C23.9092 360.335 19.24 358.618 19.24 350.954C19.24 348.771 20.0196 346.986 21.299 345.587C21.0927 345.082 20.4064 343.049 21.4942 340.295C21.4942 340.295 23.1737 339.757 26.9945 342.345C28.5893 341.901 30.3008 341.68 32.0012 341.671C33.6992 341.68 35.4108 341.901 37.008 342.345C40.8262 339.757 42.5022 340.295 42.5022 340.295C43.5936 343.049 42.9074 345.082 42.7009 345.587C43.9828 346.986 44.7576 348.771 44.7576 350.954C44.7576 358.637 40.0809 360.329 35.6256 360.822C36.3437 361.44 36.9834 362.661 36.9834 364.526C36.9834 367.2 36.9588 369.357 36.9588 370.012C36.9588 370.548 37.3185 371.169 38.3339 370.975C46.2739 368.323 52 360.834 52 352C52 340.954 43.0446 332 31.9988 332Z" fill="white"/><path d="M60.6667 386H3.33333C2.59695 386 2 386.597 2 387.333V444.667C2 445.403 2.59695 446 3.33333 446H60.6667C61.403 446 62 445.403 62 444.667V387.333C62 386.597 61.403 386 60.6667 386Z" fill="white"/><path d="M31.76 435.521C42.6733 435.521 51.5202 426.672 51.5202 415.759C51.5202 404.848 42.6733 396 31.76 396C20.8469 396 12 404.848 12 415.759C12 426.672 20.8469 435.521 31.76 435.521Z" fill="#DB4437"/><path d="M31.76 396.225C42.628 396.225 51.4636 405.005 51.5202 415.873V415.759C51.5202 404.837 42.6846 396 31.76 396C20.8356 396 12 404.837 12 415.759V415.873C12.0564 405.005 20.892 396.225 31.76 396.225Z" fill="white" fill-opacity="0.2"/><path d="M31.76 435.293C20.892 435.293 12.0564 426.516 12 415.648V415.759C12 426.684 20.8356 435.521 31.76 435.521C42.6846 435.521 51.5202 426.684 51.5202 415.759V415.648C51.4636 426.516 42.628 435.293 31.76 435.293Z" fill="#3E2723" fill-opacity="0.2"/><path d="M43.447 410.367H40.7652V414.743H38.0835L32.4377 409.099C30.8851 407.631 28.8526 406.754 26.425 406.754C22.9246 406.754 19.8759 408.76 18.408 411.696C17.787 412.908 17.4482 414.265 17.4482 415.733C17.4482 417.198 17.787 418.556 18.408 419.768C18.8879 420.701 19.5089 421.546 20.2711 422.251L22.7552 424.738L33.8491 435.831L48.8668 432.781L52 418.866L43.447 410.367Z" fill="url(#paint0_linear)"/><path d="M47.0321 413.952H43.4471V410.367H40.7369V413.952H37.1519V416.664H40.7369V420.248H43.4471V416.664H47.0321" fill="#EEEEEE"/><path opacity="0.4" d="M40.7369 410.367H43.4186V410.595H40.7369V410.367ZM37.1519 413.952H40.7369V414.18H37.1519V413.952ZM43.4471 413.952H47.0321V414.18H43.4471V413.952Z" fill="white"/><path opacity="0.1" d="M40.7369 420.248H43.4186V420.473H40.7369V420.248ZM37.1519 416.664H40.7369V416.888H37.1519V416.664ZM43.4471 416.664H47.0321V416.888H43.4471V416.664Z" fill="#3E2723"/><path d="M26.3689 417.454V414.123H34.781C34.894 414.686 35.0069 415.224 35.0069 415.958C35.0069 421.096 31.563 424.738 26.3971 424.738C21.4289 424.738 17.4204 420.701 17.4204 415.759C17.4204 410.82 21.4571 406.783 26.3971 406.783C28.8248 406.783 30.8572 407.659 32.4098 409.127L29.8692 411.611C29.22 410.99 28.0908 410.285 26.4253 410.285C23.4613 410.285 21.0337 412.769 21.0337 415.787C21.0337 418.809 23.4613 421.292 26.4253 421.292C29.8692 421.292 31.1395 418.922 31.3653 417.511L26.3689 417.454Z" fill="#EEEEEE"/><path opacity="0.4" d="M26.3687 421.492C29.8126 421.492 31.0829 419.119 31.3087 417.708H31.2522C30.9417 419.147 29.615 421.264 26.3687 421.264C23.4329 421.264 21.0335 418.866 20.977 415.873C20.977 415.901 20.977 415.958 20.977 415.986C20.977 419.033 23.4047 421.492 26.3687 421.492ZM26.3687 414.348H34.7809C34.8938 414.885 34.9783 415.392 35.0068 416.043V415.93C35.0068 415.195 34.922 414.658 34.7809 414.094H26.3687V414.348ZM26.3687 407.01C28.7399 407.01 30.7159 407.855 32.2402 409.238L32.3532 409.127C30.8006 407.659 28.7681 406.783 26.3405 406.783C21.3722 406.783 17.3638 410.82 17.3638 415.759C17.3638 415.787 17.3638 415.844 17.3638 415.873C17.4484 410.962 21.4569 407.01 26.3687 407.01Z" fill="white"/><path opacity="0.1" d="M26.3688 410.257C23.4048 410.257 20.9771 412.74 20.9771 415.759C20.9771 415.787 20.9771 415.844 20.9771 415.873C21.0336 412.88 23.433 410.481 26.3688 410.481C28.0625 410.481 29.1917 411.215 29.8127 411.807L32.3533 409.323C32.325 409.295 32.2686 409.238 32.2403 409.212L29.8127 411.554C29.1917 410.991 28.0625 410.257 26.3688 410.257ZM26.3688 424.738C21.457 424.738 17.4485 420.786 17.3921 415.873C17.3921 415.901 17.3921 415.958 17.3921 415.986C17.3921 420.954 21.4288 424.963 26.3688 424.963C31.5629 424.963 34.9784 421.321 34.9784 416.183V416.072C34.9503 421.153 31.5346 424.738 26.3688 424.738ZM26.3688 417.454V417.679H31.2523C31.2806 417.594 31.2806 417.54 31.3088 417.454H26.3688Z" fill="#3E2723"/><path d="M31.76 435.521C42.6733 435.521 51.5202 426.672 51.5202 415.759C51.5202 404.848 42.6733 396 31.76 396C20.8469 396 12 404.848 12 415.759C12 426.672 20.8469 435.521 31.76 435.521Z" fill="url(#paint1_radial)"/><path d="M60.6667 450H3.33333C2.59695 450 2 450.597 2 451.333V508.667C2 509.403 2.59695 510 3.33333 510H60.6667C61.403 510 62 509.403 62 508.667V451.333C62 450.597 61.403 450 60.6667 450Z" fill="#222222"/><g clip-path="url(#clip0_1_42)"><path d="M19.2982 458L10 492.702L44.7018 502L54 467.298L19.2982 458ZM35.5502 486.15L25.8533 483.55L28.4529 473.853L38.1537 476.453L35.5502 486.15Z" fill="white"/></g><path d="M60.6667 514H3.33333C2.59695 514 2 514.597 2 515.333V572.667C2 573.403 2.59695 574 3.33333 574H60.6667C61.403 574 62 573.403 62 572.667V515.333C62 514.597 61.403 514 60.6667 514Z" fill="#04D168"/><path d="M47.754 556.883C50.3503 555.031 52.0001 552.286 52.0001 549.218C52.0001 543.658 46.5909 539.142 39.9244 539.142C33.2577 539.142 27.8486 543.658 27.8486 549.218C27.8486 554.775 33.2577 559.292 39.9244 559.292C41.3712 559.292 42.7506 559.074 44.0352 558.695C44.2651 558.628 44.5084 558.655 44.7115 558.778L47.3349 560.292C47.9161 560.631 48.2543 560.372 48.0786 559.723L47.5106 557.56C47.4564 557.289 47.5512 557.034 47.754 556.883ZM35.9081 547.622C35.0021 547.622 34.2719 546.892 34.2719 545.985C34.2719 545.08 35.0021 544.348 35.9081 544.348C36.8143 544.348 37.5444 545.08 37.5444 545.985C37.5444 546.877 36.8143 547.622 35.9081 547.622ZM43.9137 547.622C43.0075 547.622 42.2774 546.892 42.2774 545.985C42.2774 545.08 43.0075 544.348 43.9137 544.348C44.8195 544.348 45.5497 545.08 45.5497 545.985C45.5497 546.877 44.8195 547.622 43.9137 547.622Z" fill="white"/><path d="M26.5098 528C18.4909 528 12 533.409 12 540.077C12 543.742 13.9608 547.028 17.0575 549.243C17.355 549.446 17.4767 549.812 17.3955 550.163L16.7194 552.705C16.5166 553.477 16.9087 553.775 17.5984 553.369L20.7086 551.557C20.9926 551.394 21.3171 551.354 21.6281 551.449C23.1562 551.908 24.8059 552.151 26.5233 552.151C26.7802 552.151 27.0507 552.151 27.3076 552.138C26.9831 551.191 26.8208 550.191 26.8208 549.163C26.8208 543.092 32.7708 538.169 40.1 538.169C40.3569 538.169 40.6139 538.169 40.8572 538.182C39.7486 532.422 33.7444 528 26.5098 528ZM21.6417 538.129C20.5734 538.129 19.7079 537.262 19.7079 536.194C19.7079 535.126 20.5734 534.262 21.6417 534.262C22.7099 534.262 23.5754 535.126 23.5754 536.194C23.5619 537.262 22.7099 538.129 21.6417 538.129ZM31.3239 538.129C30.2556 538.129 29.3901 537.262 29.3901 536.194C29.3901 535.126 30.2556 534.262 31.3239 534.262C32.3922 534.262 33.2576 535.126 33.2576 536.194C33.2576 537.262 32.3922 538.129 31.3239 538.129Z" fill="white"/><path d="M60.6667 578H3.33333C2.59695 578 2 578.597 2 579.333V636.667C2 637.403 2.59695 638 3.33333 638H60.6667C61.403 638 62 637.403 62 636.667V579.333C62 578.597 61.403 578 60.6667 578Z" fill="white"/><path d="M41.4754 604.054C41.4754 605.415 41.5243 606.768 41.459 608.128C41.3939 609.679 41.8667 611.006 42.845 612.182C42.9589 612.32 43.0651 612.458 43.1629 612.606C43.5134 613.134 43.4481 613.501 42.9673 613.91C41.9401 614.774 40.9212 615.645 39.894 616.509C39.2825 617.024 38.8993 617.016 38.2798 616.509C37.4482 615.832 36.7962 615.002 36.2173 614.113C36.0786 613.902 36.0052 613.91 35.834 614.074C34.8071 615.075 33.7228 616.004 32.3451 616.47C30.2174 617.196 28.0571 617.308 25.9213 616.551C23.8669 615.817 22.636 614.3 22.1794 612.19C21.674 609.833 21.9349 607.592 23.3859 605.594C24.4865 604.085 26.0109 603.198 27.7636 602.652C29.5734 602.097 31.4402 601.884 33.3152 601.697C33.8451 601.639 34.3669 601.593 34.8966 601.543C35.0272 601.535 35.1412 601.517 35.1331 601.348C35.1167 600.484 35.2065 599.602 35.0028 598.754C34.7418 597.672 34.0326 597.034 32.9483 596.797C32.1739 596.628 31.4076 596.675 30.6576 596.927C29.5163 597.32 28.8071 598.111 28.5218 599.285C28.3669 599.927 28.0652 600.156 27.4375 600.091C26.1006 599.953 24.7637 599.816 23.4349 599.675C22.8887 599.618 22.6034 599.204 22.7175 598.673C23.4104 595.291 25.6278 593.392 28.8234 592.517C31.2772 591.851 33.7635 591.81 36.2254 592.502C38.2064 593.056 39.8695 594.034 40.7989 595.975C41.3286 597.076 41.4509 598.265 41.4673 599.456C41.4834 600.981 41.4673 602.521 41.4754 604.054C41.4673 604.054 41.4754 604.054 41.4754 604.054ZM35.1331 606.596C35.1331 606.19 35.1167 605.782 35.1412 605.373C35.1576 605.121 35.0678 605.032 34.8152 605.056C34.1957 605.113 33.5679 605.121 32.9483 605.204C31.8641 605.342 30.8043 605.61 29.9239 606.297C28.644 607.298 28.375 608.667 28.587 610.207C28.8397 612.018 30.4538 613.02 32.182 612.419C33.3559 612.01 34.0733 611.147 34.5706 610.062C35.0923 608.961 35.1331 607.78 35.1331 606.596Z" fill="#050606"/><path d="M32.117 624.996C25.897 624.955 20.3128 623.357 15.2667 619.99C14.2395 619.306 13.2613 618.557 12.3319 617.732C12.2504 617.659 12.1689 617.586 12.1037 617.498C12.014 617.375 11.9488 617.227 12.0548 617.081C12.1607 616.917 12.3401 616.902 12.495 616.975C12.8537 617.146 13.196 617.334 13.5466 617.513C16.7585 619.207 20.1416 620.43 23.6877 621.205C26.8997 621.908 30.1442 622.233 33.4376 622.142C38.1413 622.012 42.6739 621.067 47.0352 619.314C47.2472 619.225 47.4673 619.134 47.6874 619.085C47.9973 619.03 48.3069 619.069 48.4456 619.405C48.576 619.714 48.4048 619.959 48.1766 620.154C48.0135 620.292 47.8261 620.407 47.6385 620.529C44.8259 622.355 41.7446 623.529 38.4837 624.255C36.3317 624.744 34.1469 624.981 32.117 624.996Z" fill="#F6A61F"/><path d="M47.8099 617.732C46.8725 617.724 45.9431 617.846 45.0137 617.945C44.8344 617.961 44.6307 618.01 44.549 617.815C44.4512 617.594 44.6388 617.464 44.7936 617.357C45.9511 616.592 47.2474 616.29 48.6087 616.218C49.5464 616.16 50.4755 616.199 51.3887 616.478C51.8043 616.6 52.0082 616.845 51.9999 617.269C51.951 619.535 51.1931 621.507 49.5544 623.112C49.4975 623.17 49.4322 623.219 49.3668 623.269C49.2201 623.375 49.0408 623.471 48.886 623.341C48.7393 623.219 48.8207 623.04 48.886 622.894C49.3668 621.694 49.856 620.505 50.0925 619.225C50.125 619.061 50.1331 618.897 50.1414 618.744C50.1495 618.213 49.9621 617.984 49.4402 617.854C48.8941 617.708 48.348 617.732 47.8099 617.732Z" fill="#F6A61F"/><path d="M60.6667 642H3.33333C2.59695 642 2 642.597 2 643.333V700.667C2 701.403 2.59695 702 3.33333 702H60.6667C61.403 702 62 701.403 62 700.667V643.333C62 642.597 61.403 642 60.6667 642Z" fill="#12B7F5"/><path d="M47.6542 677.057C47.298 675.909 46.8104 674.571 46.3177 673.287L44.5182 668.793C44.5182 668.741 44.5416 667.857 44.5416 667.401C44.5416 659.719 40.9154 652 31.9975 652C23.0796 652 19.4534 659.719 19.4534 667.401C19.4534 667.857 19.4755 668.741 19.4768 668.793L17.6773 673.285C17.1845 674.571 16.697 675.909 16.3407 677.056C14.6401 682.53 15.1914 684.794 15.61 684.845C16.5111 684.954 19.1205 680.725 19.1205 680.725C19.1205 683.174 20.3817 686.37 23.1095 688.677C22.0888 688.991 20.838 689.476 20.0345 690.069C19.3129 690.602 19.4027 691.146 19.5327 691.369C20.1035 692.334 29.3373 691.986 32.004 691.685C34.6693 691.986 43.9032 692.335 44.4753 691.369C44.6053 691.15 44.695 690.606 43.9734 690.069C43.1686 689.475 41.9179 688.991 40.8972 688.677C43.6276 686.369 44.8849 683.173 44.8849 680.725C44.8849 680.725 47.4852 684.954 48.3953 684.845C48.8036 684.796 49.3549 682.531 47.6542 677.057Z" fill="white"/><path d="M60.6667 706H3.33333C2.59695 706 2 706.597 2 707.333V764.667C2 765.403 2.59695 766 3.33333 766H60.6667C61.403 766 62 765.403 62 764.667V707.333C62 706.597 61.403 706 60.6667 706Z" fill="#F5C400"/><path d="M21.9451 727.132C21.9451 727.132 21.9751 731.402 24.1675 735.818C26.4199 740.068 29.5255 742.799 32.0874 743.886C34.7346 742.649 37.2918 740.501 38.6874 738.187H31.4202C29.5399 736.628 28.0603 734.043 27.7207 731.055H49.0397C47.9885 735.859 45.7577 740.229 43.6325 743.012C40.6828 746.87 36.6831 749.815 32.103 751.5H32.0358C24.3895 748.453 20.2759 743.655 17.5616 738.24C15.8204 734.77 14 728.47 14 720H49.9998C50.0057 722.385 49.8453 724.768 49.5197 727.132H21.9451Z" fill="#111820"/><defs><linearGradient id="paint0_linear" x1="21.84" y1="418.345" x2="46.9173" y2="427.25" gradientUnits="userSpaceOnUse"><stop stop-color="#3E2723" stop-opacity="0.2"/><stop offset="1" stop-color="#3E2723" stop-opacity="0.02"/></linearGradient><radialGradient id="paint1_radial" cx="0" cy="0" r="1" gradientUnits="userSpaceOnUse" gradientTransform="translate(20.984 401.164) scale(37.4729)"><stop stop-color="white" stop-opacity="0.1"/><stop offset="1" stop-color="white" stop-opacity="0"/></radialGradient><clipPath id="clip0_1_42"><rect width="44" height="44" fill="white" transform="translate(10 458)"/></clipPath><linearGradient id="linear-gradient" x1="120" y1="240" x2="120" gradientUnits="userSpaceOnUse" gradientTransform="matrix(0.266667, 0, 0, 0.266667, 132.520416, 323.264099)"><stop offset="0" stop-color="#1d93d2"/><stop offset="1" stop-color="#38b0e3"/></linearGradient></defs><g id="Livello_1" transform="matrix(1, 0, 0, 1, -213.815002, 438.830597)"><title>Telegram_logo</title><path d="M 274.542 331.251 L 217.208 331.251 C 216.472 331.251 215.875 331.848 215.875 332.584 L 215.875 389.918 C 215.875 390.654 216.472 391.251 217.208 391.251 L 274.542 391.251 C 275.278 391.251 275.875 390.654 275.875 389.918 L 275.875 332.584 C 275.875 331.848 275.278 331.251 274.542 331.251 Z" fill="url(#linear-gradient)" style="stroke-width: 0.267;"/><path d="M 235.476 364.144 L 239.272 374.653 C 239.272 374.653 239.747 375.636 240.255 375.636 C 240.763 375.636 248.323 367.771 248.323 367.771 L 256.73 351.534 L 235.611 361.432 L 235.476 364.144 Z" fill="#c8daea" style="stroke-width: 0.267;"/><path d="M 240.51 366.839 L 239.781 374.585 C 239.781 374.585 239.476 376.958 241.849 374.585 C 244.221 372.212 246.493 370.381 246.493 370.381" fill="#a9c6d8" style="stroke-width: 0.267;"/><path d="M 235.544 364.519 L 227.735 361.975 C 227.735 361.975 226.801 361.596 227.102 360.737 C 227.164 360.56 227.289 360.41 227.662 360.151 C 229.392 358.945 259.69 348.055 259.69 348.055 C 259.69 348.055 260.546 347.767 261.05 347.958 C 261.304 348.037 261.496 348.246 261.553 348.506 C 261.607 348.732 261.63 348.964 261.621 349.196 C 261.618 349.396 261.594 349.582 261.575 349.873 C 261.391 352.851 255.869 375.072 255.869 375.072 C 255.869 375.072 255.538 376.372 254.355 376.416 C 253.767 376.435 253.197 376.215 252.775 375.805 C 250.452 373.807 242.423 368.411 240.649 367.225 C 240.568 367.169 240.515 367.082 240.503 366.985 C 240.478 366.86 240.614 366.705 240.614 366.705 C 240.614 366.705 254.595 354.278 254.967 352.973 C 254.995 352.872 254.887 352.823 254.741 352.867 C 253.812 353.208 237.715 363.373 235.939 364.495 C 235.811 364.534 235.676 364.542 235.544 364.519 Z" fill="#fff" style="stroke-width: 0.267;"/><g id="Layer_1" transform="matrix(0.535098, 0, 0, 0.535098, 148.974442, 209.104935)" style=""><path d="M 234.551 349.511 L 127.404 349.511 C 126.028 349.511 124.913 350.626 124.913 352.002 L 124.913 459.149 C 124.913 460.524 126.028 461.64 127.404 461.64 L 234.551 461.64 C 235.926 461.64 237.042 460.524 237.042 459.149 L 237.042 352.002 C 237.042 350.626 235.926 349.511 234.551 349.511 Z" fill="#010101" style="stroke-width: 0.499;"/><g transform="matrix(0.07232, 0, 0, 0.07232, 146.680176, 370.757202)"><path fill="#FF004F" d="M655.853,360.979c64.565,46.13,143.67,73.274,229.097,73.274V269.94   c-16.168,0.007-32.294-1.68-48.111-5.033v129.339c-85.422,0-164.513-27.144-229.098-73.274v335.311   c0,167.738-136.048,303.711-303.864,303.711c-62.614,0-120.814-18.923-169.163-51.368c55.18,56.39,132.13,91.374,217.262,91.374   c167.828,0,303.883-135.969,303.883-303.718V360.979H655.853z M715.204,195.209c-32.997-36.029-54.659-82.595-59.351-134.076V40   H610.26C621.735,105.428,660.879,161.327,715.204,195.209L715.204,195.209z M240.855,779.91   c-18.434-24.158-28.398-53.716-28.353-84.104c0-76.72,62.23-138.92,139.002-138.92c14.306-0.012,28.528,2.187,42.165,6.508V395.41   c-15.935-2.183-32.015-3.108-48.095-2.768v130.751c-13.644-4.324-27.871-6.519-42.183-6.511   c-76.773,0-138.998,62.201-138.998,138.929C164.396,710.06,195.5,757.031,240.855,779.91z"/><path d="M607.741,320.973c64.585,46.13,143.676,73.274,229.098,73.274V264.908c-47.682-10.147-89.895-35.056-121.635-69.699   C660.879,161.327,621.735,105.427,610.26,40H490.5v656.278c-0.271,76.509-62.394,138.455-139.001,138.455   c-45.145,0-85.251-21.505-110.649-54.822c-45.358-22.879-76.46-69.851-76.46-124.102c0-76.725,62.224-138.926,138.997-138.926   c14.708,0,28.885,2.291,42.183,6.508V392.642c-164.868,3.404-297.463,138.046-297.463,303.64   c0,82.66,33.021,157.598,86.607,212.349C183.062,941.078,241.262,960,303.876,960c167.816,0,303.864-135.979,303.864-303.711   V320.973L607.741,320.973z"/><path fill="#00F2EA" d="M836.838,264.908v-34.974c-43,0.065-85.151-11.97-121.635-34.73   C747.498,230.542,790.021,254.911,836.838,264.908z M610.26,40c-1.096-6.252-1.938-12.546-2.52-18.867V0H442.384v656.283   c-0.265,76.5-62.384,138.448-138.998,138.448c-22.496,0-43.728-5.334-62.537-14.821c25.398,33.317,65.504,54.822,110.649,54.822   c76.602,0,138.731-61.946,139.001-138.455V40H610.26z M345.575,392.643V355.41c-13.817-1.889-27.747-2.833-41.692-2.826   C136.047,352.583,0,488.56,0,656.283C0,761.44,53.469,854.111,134.72,908.626c-53.587-54.748-86.607-129.687-86.607-212.349   C48.113,530.691,180.702,396.047,345.575,392.643z"/></g></g></g></svg>